<?xml version="1.0" encoding="UTF-8" standalone="no"?>
<!-- Generator: Adobe Illustrator 16.0.0, SVG Export Plug-In . SVG Version: 6.00 Build 0)  -->

<svg
   xmlns:dc="http://purl.org/dc/elements/1.1/"
   xmlns:cc="http://creativecommons.org/ns#"
   xmlns:rdf="http://www.w3.org/1999/02/22-rdf-syntax-ns#"
   xmlns:svg="http://www.w3.org/2000/svg"
   xmlns="http://www.w3.org/2000/svg"
   xmlns:xlink="http://www.w3.org/1999/xlink"
   xmlns:sodipodi="http://sodipodi.sourceforge.net/DTD/sodipodi-0.dtd"
   xmlns:inkscape="http://www.inkscape.org/namespaces/inkscape"
   version="1.1"
   id="Layer_1"
   x="0px"
   y="0px"
   width="864px"
   height="864px"
   viewBox="0 0 864 864"
   enable-background="new 0 0 864 864"
   xml:space="preserve"
   sodipodi:docname="Anger.svg"
   inkscape:version="0.92.3 (2405546, 2018-03-11)"><metadata
   id="metadata19"><rdf:RDF><cc:Work
       rdf:about=""><dc:format>image/svg+xml</dc:format><dc:type
         rdf:resource="http://purl.org/dc/dcmitype/StillImage" /><dc:title></dc:title></cc:Work></rdf:RDF></metadata><defs
   id="defs17"><symbol
     viewBox="0 0 64 64"
     id="emoji-1f621"><title
       id="title50778">1f621</title><circle
       fill="#f46767"
       cx="32"
       cy="32"
       r="30"
       id="circle50780" /><path
       fill="#493b30"
       d="m42.684 48.839c-1.8-1.059-3.54-1.701-5.322-2.127-1.774-.426-3.565-.609-5.361-.611-1.798.008-3.587.189-5.36.615-1.782.428-3.521 1.066-5.323 2.123.771-1.977 2.485-3.531 4.396-4.525 1.932-1 4.119-1.486 6.287-1.486 2.167.004 4.354.486 6.284 1.49 1.909.994 3.624 2.546 4.399 4.521"
       id="path50782" /><path
       fill="#fff"
       d="m52.29 24.597c2.01 4.313.146 9.439-4.168 11.449-4.313 2.01-9.439.145-11.449-4.166-1.514-3.248 14.1-10.531 15.617-7.283"
       id="path50784" /><g
       fill="#493b30"
       id="g50790"><path
         d="m49.762 25.776c1.359 2.916.098 6.381-2.816 7.742-2.916 1.359-6.381.098-7.742-2.818-.864-1.851 9.694-6.775 10.558-4.924"
         id="path50786" /><path
         d="m53.895 24.925c-1.87.182-3.539.459-5.153.891-1.609.422-3.145.982-4.622 1.668-1.484.689-2.89 1.488-4.25 2.447-1.364.957-2.645 2.057-3.975 3.387.203-1.885 1.128-3.656 2.37-5.115 1.248-1.461 2.851-2.641 4.595-3.441 1.75-.811 3.67-1.262 5.591-1.279 1.911-.009 3.858.407 5.444 1.442"
         id="path50788" /></g><path
       fill="#fff"
       d="m11.709 24.597c-2.01 4.313-.146 9.439 4.168 11.449 4.311 2.01 9.438.145 11.447-4.166 1.516-3.248-14.1-10.531-15.615-7.283"
       id="path50792" /><g
       fill="#493b30"
       id="g50798"><path
         d="m14.238 25.776c-1.361 2.916-.1 6.381 2.814 7.742 2.918 1.359 6.383.098 7.744-2.818.862-1.851-9.694-6.775-10.558-4.924"
         id="path50794" /><path
         d="m10.11 24.925c1.586-1.035 3.531-1.451 5.444-1.443 1.921.018 3.841.469 5.591 1.279 1.744.801 3.346 1.98 4.595 3.441 1.241 1.461 2.167 3.23 2.37 5.115-1.33-1.33-2.61-2.43-3.975-3.387-1.36-.959-2.767-1.758-4.25-2.449-1.478-.684-3.01-1.244-4.622-1.666-1.613-.431-3.282-.709-5.153-.89"
         id="path50796" /></g></symbol></defs><sodipodi:namedview
   pagecolor="#ffffff"
   bordercolor="#666666"
   borderopacity="1"
   objecttolerance="10"
   gridtolerance="10"
   guidetolerance="10"
   inkscape:pageopacity="0"
   inkscape:pageshadow="2"
   inkscape:window-width="4000"
   inkscape:window-height="2094"
   id="namedview15"
   showgrid="false"
   inkscape:zoom="0.27314815"
   inkscape:cx="-1369.2203"
   inkscape:cy="432"
   inkscape:window-x="-16"
   inkscape:window-y="-16"
   inkscape:window-maximized="1"
   inkscape:current-layer="Layer_1" />



<text
   xml:space="preserve"
   style="font-style:normal;font-weight:normal;font-size:40px;line-height:1.25;font-family:sans-serif;letter-spacing:0px;word-spacing:0px;fill:#000000;fill-opacity:1;stroke:none"
   x="-1168.5424"
   y="545.7627"
   id="text828"
   inkscape:export-xdpi="96"
   inkscape:export-ydpi="96"><tspan
     sodipodi:role="line"
     id="tspan826"
     x="-1168.5424"
     y="545.7627"
     style="font-size:192px">ANGER</tspan></text>

<flowRoot
   xml:space="preserve"
   id="flowRoot2495"
   style="fill:black;fill-opacity:1;stroke:none;font-family:sans-serif;font-style:normal;font-weight:normal;font-size:40px;line-height:1.25;letter-spacing:0px;word-spacing:0px"><flowRegion
     id="flowRegion2497"><rect
       id="rect2499"
       width="882.30511"
       height="768.81354"
       x="-54.915253"
       y="-84.203392" /></flowRegion><flowPara
     id="flowPara2501"></flowPara></flowRoot><flowRoot
   xml:space="preserve"
   id="flowRoot2503"
   style="fill:black;fill-opacity:1;stroke:none;font-family:sans-serif;font-style:normal;font-weight:normal;font-size:40px;line-height:1.25;letter-spacing:0px;word-spacing:0px"><flowRegion
     id="flowRegion2505"><rect
       id="rect2507"
       width="1266.7119"
       height="673.62714"
       x="-270.91525"
       y="84.203392" /></flowRegion><flowPara
     id="flowPara2509"></flowPara></flowRoot><use
   id="use96665"
   xlink:href="#emoji-1f621"
   x="0"
   y="0"
   width="100%"
   height="100%"
   transform="translate(-1266.7119,-494.23729)"
   inkscape:export-xdpi="96"
   inkscape:export-ydpi="96" /></svg>