<?xml version="1.0" encoding="UTF-8" standalone="no"?>
<!-- Generator: Adobe Illustrator 16.0.0, SVG Export Plug-In . SVG Version: 6.00 Build 0)  -->

<svg
   xmlns:dc="http://purl.org/dc/elements/1.1/"
   xmlns:cc="http://creativecommons.org/ns#"
   xmlns:rdf="http://www.w3.org/1999/02/22-rdf-syntax-ns#"
   xmlns:svg="http://www.w3.org/2000/svg"
   xmlns="http://www.w3.org/2000/svg"
   xmlns:xlink="http://www.w3.org/1999/xlink"
   xmlns:sodipodi="http://sodipodi.sourceforge.net/DTD/sodipodi-0.dtd"
   xmlns:inkscape="http://www.inkscape.org/namespaces/inkscape"
   version="1.1"
   id="Layer_1"
   x="0px"
   y="0px"
   width="864px"
   height="864px"
   viewBox="0 0 864 864"
   enable-background="new 0 0 864 864"
   xml:space="preserve"
   sodipodi:docname="Sadness.svg"
   inkscape:version="0.92.3 (2405546, 2018-03-11)"
   inkscape:export-filename="C:\Users\Joe's Laptop\Documents\potentie-FeelsBook\graphics\Emotions\Sadness.png"
   inkscape:export-xdpi="96"
   inkscape:export-ydpi="96"><metadata
   id="metadata19"><rdf:RDF><cc:Work
       rdf:about=""><dc:format>image/svg+xml</dc:format><dc:type
         rdf:resource="http://purl.org/dc/dcmitype/StillImage" /><dc:title></dc:title></cc:Work></rdf:RDF></metadata><defs
   id="defs17"><symbol
     viewBox="0 0 64 64"
     id="emoji-1f621"><title
       id="title50778">1f621</title><circle
       fill="#f46767"
       cx="32"
       cy="32"
       r="30"
       id="circle50780" /><path
       fill="#493b30"
       d="m42.684 48.839c-1.8-1.059-3.54-1.701-5.322-2.127-1.774-.426-3.565-.609-5.361-.611-1.798.008-3.587.189-5.36.615-1.782.428-3.521 1.066-5.323 2.123.771-1.977 2.485-3.531 4.396-4.525 1.932-1 4.119-1.486 6.287-1.486 2.167.004 4.354.486 6.284 1.49 1.909.994 3.624 2.546 4.399 4.521"
       id="path50782" /><path
       fill="#fff"
       d="m52.29 24.597c2.01 4.313.146 9.439-4.168 11.449-4.313 2.01-9.439.145-11.449-4.166-1.514-3.248 14.1-10.531 15.617-7.283"
       id="path50784" /><g
       fill="#493b30"
       id="g50790"><path
         d="m49.762 25.776c1.359 2.916.098 6.381-2.816 7.742-2.916 1.359-6.381.098-7.742-2.818-.864-1.851 9.694-6.775 10.558-4.924"
         id="path50786" /><path
         d="m53.895 24.925c-1.87.182-3.539.459-5.153.891-1.609.422-3.145.982-4.622 1.668-1.484.689-2.89 1.488-4.25 2.447-1.364.957-2.645 2.057-3.975 3.387.203-1.885 1.128-3.656 2.37-5.115 1.248-1.461 2.851-2.641 4.595-3.441 1.75-.811 3.67-1.262 5.591-1.279 1.911-.009 3.858.407 5.444 1.442"
         id="path50788" /></g><path
       fill="#fff"
       d="m11.709 24.597c-2.01 4.313-.146 9.439 4.168 11.449 4.311 2.01 9.438.145 11.447-4.166 1.516-3.248-14.1-10.531-15.615-7.283"
       id="path50792" /><g
       fill="#493b30"
       id="g50798"><path
         d="m14.238 25.776c-1.361 2.916-.1 6.381 2.814 7.742 2.918 1.359 6.383.098 7.744-2.818.862-1.851-9.694-6.775-10.558-4.924"
         id="path50794" /><path
         d="m10.11 24.925c1.586-1.035 3.531-1.451 5.444-1.443 1.921.018 3.841.469 5.591 1.279 1.744.801 3.346 1.98 4.595 3.441 1.241 1.461 2.167 3.23 2.37 5.115-1.33-1.33-2.61-2.43-3.975-3.387-1.36-.959-2.767-1.758-4.25-2.449-1.478-.684-3.01-1.244-4.622-1.666-1.613-.431-3.282-.709-5.153-.89"
         id="path50796" /></g></symbol><symbol
     viewBox="0 0 64 64"
     id="emoji-1f604"><title
       id="title50199">1f604</title><circle
       fill="#ffdd67"
       cx="32"
       cy="32"
       r="30"
       id="circle50201" /><path
       fill="#664e27"
       d="m48 37.5c0 6.461-5.314 14-16 14-10.689 0-16-7.539-16-14 0 0 5.311 0 16 0 10.686 0 16 0 16 0"
       id="path50203" /><path
       fill="#fff"
       d="m16.918 37.5h30.17v5.6h-30.17z"
       id="path50205" /><g
       fill="#664e27"
       id="g50213"><path
         d="m32 52.5c-11.04 0-17-7.729-17-15v-1h34v1c0 7.271-5.957 15-17 15m-14.955-14c.523 5.99 5.727 12 14.955 12s14.434-6.01 14.957-12h-29.912"
         id="path50207" /><path
         d="m27.59 25.647c-3.264-6.197-12.653-6.197-15.917 0-.195.378.32.921.95 1.353 4.135-3.271 9.88-3.271 14.01-.001.632-.431 1.147-.974.952-1.352"
         id="path50209" /><path
         d="m52.33 25.647c-3.264-6.197-12.652-6.197-15.916-.001-.195.379.319.922.949 1.353 4.136-3.271 9.881-3.271 14.02-.001.631-.431 1.145-.973.951-1.351"
         id="path50211" /></g></symbol><symbol
     viewBox="0 0 64 64"
     id="emoji-1f631"><title
       id="title51168">1f631</title><path
       fill="#ffdd67"
       d="M32,2C15.432,2,2,15.431,2,32c0,4.865,15.729,22.858,23.019,27.551C26.967,60.805,29.683,62,32,62    s5.033-1.195,6.981-2.449C46.271,54.858,62,36.865,62,32C62,15.431,48.568,2,32,2z"
       id="path51170" /><circle
       fill="#fff"
       cx="20.5"
       cy="24"
       r="9"
       id="circle51172" /><circle
       fill="#664e27"
       cx="20.5"
       cy="24"
       r="2.5"
       id="circle51174" /><circle
       fill="#fff"
       cx="43.5"
       cy="24"
       r="9"
       id="circle51176" /><g
       fill="#664e27"
       id="g51182"><circle
         cx="43.5"
         cy="24"
         r="2.5"
         id="circle51178" /><ellipse
         cx="32"
         cy="46.06"
         rx="8.333"
         ry="12.02"
         id="ellipse51180" /></g><path
       fill="#4c3526"
       d="m33.966 41.36c-.618-.018-1.568.605-1.221 2.252.176.83 1.271 1.837 1.271 3.18 0 2.727-4.03 2.727-4.03 0 0-1.343 1.094-2.35 1.27-3.18.348-1.646-.604-2.27-1.221-2.252-1.678.047-4.429 1.997-4.429 5.297 0 3.71 2.864 6.717 6.395 6.717 3.529 0 6.394-3.01 6.394-6.717 0-3.3-2.753-5.25-4.428-5.297"
       id="path51184" /><path
       fill="#ff717f"
       d="m32 51.857c-3.864 0-4.965 1.133-4.965 1.133.991 2.138 2.845 3.579 4.965 3.579s3.972-1.44 4.964-3.579c0 0-1.101-1.133-4.964-1.133"
       id="path51186" /><g
       fill="#917524"
       id="g51192"><path
         d="m22.682 7.701c-2.418 3.477-6.262 5.695-10.483 6.05-.588.041-.527 2.234.187 2.183 4.868-.41 9.305-2.97 12.1-6.984.4-.594-1.473-1.739-1.801-1.251"
         id="path51188" /><path
         d="m51.8 13.601c-4.22-.356-8.06-2.575-10.482-6.05-.327-.49-2.2.658-1.797 1.252 2.789 4.01 7.225 6.572 12.1 6.983.713.052.771-2.142.182-2.182"
         id="path51190" /></g><g
       fill="#d8a941"
       id="g51198"><path
         d="m48.33 45.703c4.04-2.893 4.738-8.977 9.928-10.904 6.475-2.404 2.727 1.191 2.02 6.791-.982 7.747-6.912 12.19-7.776 18.547-.064.463-.001 1.863-.001 1.863h-13.706c0 0 .133-2.714 0-3.61-.422-2.836 1.669-7.06 9.539-12.687"
         id="path51194" /><path
         d="m15.667 45.703c-4.04-2.893-4.738-8.977-9.929-10.904-6.474-2.404-2.726 1.191-2.02 6.791.981 7.747 6.912 12.19 7.776 18.547.063.463 0 1.863 0 1.863h13.706c0 0-.133-2.714 0-3.61.423-2.836-1.668-7.06-9.538-12.687"
         id="path51196" /></g></symbol><symbol
     viewBox="0 0 64 64"
     id="emoji-1f632"><title
       id="title51201">1f632</title><circle
       fill="#ffdd67"
       cx="32"
       cy="32"
       r="30"
       id="circle51203" /><circle
       fill="#664e27"
       cx="31.999"
       cy="47.28"
       r="8.721"
       id="circle51205" /><g
       fill="#fff"
       id="g51211"><path
         d="m25.896 43.754c1.219-2.106 3.497-3.524 6.104-3.524s4.885 1.417 6.104 3.521l-12.208.003"
         id="path51207" /><circle
         cx="20.248"
         cy="29.14"
         r="9"
         id="circle51209" /></g><circle
       fill="#664e27"
       cx="20.249"
       cy="29.14"
       r="4.5"
       id="circle51213" /><circle
       fill="#fff"
       cx="43.75"
       cy="29.14"
       r="9"
       id="circle51215" /><circle
       fill="#664e27"
       cx="43.75"
       cy="29.14"
       r="4.5"
       id="circle51217" /><g
       fill="#917524"
       id="g51223"><path
         d="m50.2 15.777c-3.236-2.732-7.523-3.881-11.693-3.133-.578.113-1.088-2.02-.385-2.156 4.809-.863 9.756.461 13.492 3.615.541.469-.971 2.061-1.414 1.674"
         id="path51219" /><path
         d="m25.488 12.494c-4.168-.748-8.455.4-11.693 3.133-.443.389-1.953-1.205-1.412-1.674 3.734-3.152 8.682-4.479 13.492-3.615.703.135.191 2.269-.387 2.156"
         id="path51221" /></g></symbol><symbol
     viewBox="0 0 64 64"
     id="emoji-1f60d"><title
       id="title50378">1f60d</title><circle
       fill="#ffdd67"
       cx="32"
       cy="31.999"
       r="30"
       id="circle50380" /><path
       fill="#664e27"
       d="m48 37.499c0 6.461-5.314 14-15.998 14-10.689 0-16-7.539-16-14 0 0 5.311 0 16 0 10.684 0 15.998 0 15.998 0"
       id="path50382" /><path
       fill="#fff"
       d="m16.92 37.499h30.16v5.6h-30.16z"
       id="path50384" /><path
       fill="#664e27"
       d="m32 52.5c-11.04 0-17-7.729-17-15v-1h33.998v1c0 7.272-5.957 15-16.998 15m-14.955-14c.523 5.99 5.727 12 14.955 12 9.227 0 14.432-6.01 14.955-12h-29.91"
       id="path50386" /><g
       fill="#f46767"
       id="g50392"><path
         d="m61.848 13.22c-.463-2.655-2.031-4.89-4.463-5.553-2.654-.728-5.082.315-7.438 2.703-1.32-3.63-3.338-6.326-6.52-7.708-3.259-1.424-6.427-.466-8.425 2.061-2.076 2.628-2.902 6.677-.68 11.974 2.082 4.959 11.412 15.01 11.682 15.303.363-.226 10.754-6.72 13.299-9.909 2.49-3.12 3.01-6.227 2.545-8.871"
         id="path50388" /><path
         d="m29 4.723c-1.996-2.526-5.166-3.484-8.426-2.062-3.184 1.382-5.201 4.078-6.523 7.708-2.355-2.387-4.783-3.43-7.438-2.703-2.43.663-4 2.898-4.463 5.553-.459 2.644.057 5.751 2.545 8.872 2.547 3.189 12.94 9.683 13.303 9.909.268-.291 9.6-10.344 11.682-15.303 2.222-5.297 1.396-9.346-.68-11.974"
         id="path50390" /></g></symbol><symbol
     viewBox="0 0 64 64"
     id="emoji-1f628"><title
       id="title50949">1f628</title><circle
       fill="#ffdd67"
       cx="32"
       cy="32"
       r="30"
       id="circle50951" /><path
       fill="#fff"
       d="m16 49.5c0-6.461 5.314-14 16-14 10.689 0 16 7.539 16 14 0 0-5.311 0-16 0-10.686 0-16 0-16 0"
       id="path50953" /><path
       fill="#664e27"
       d="m15.916 50l2.084-8h28l2.08 8z"
       id="path50955" /><path
       fill="#fff"
       d="m15.917 48.699l1-3h30.16l1 3z"
       id="path50957" /><path
       fill="#664e27"
       d="m32 34.498c11.04 0 17 7.729 17 15v1h-34v-1c0-7.271 5.959-15 17-15m14.957 14c-.523-5.99-5.729-12-14.957-12s-14.432 6.01-14.955 12h29.912"
       id="path50959" /><g
       fill="#ba9436"
       id="g50965"><circle
         cx="46.09"
         cy="23.786"
         r="9"
         id="circle50961" /><circle
         cx="17.906"
         cy="23.786"
         r="9"
         id="circle50963" /></g><circle
       fill="#fff"
       cx="45.5"
       cy="21.785"
       r="9"
       id="circle50967" /><circle
       fill="#664e27"
       cx="45.5"
       cy="21.785"
       r="4.5"
       id="circle50969" /><circle
       fill="#fff"
       cx="18.5"
       cy="21.785"
       r="9"
       id="circle50971" /><circle
       fill="#664e27"
       cx="18.5"
       cy="21.785"
       r="4.5"
       id="circle50973" /></symbol></defs><sodipodi:namedview
   pagecolor="#ffffff"
   bordercolor="#666666"
   borderopacity="1"
   objecttolerance="10"
   gridtolerance="10"
   guidetolerance="10"
   inkscape:pageopacity="0"
   inkscape:pageshadow="2"
   inkscape:window-width="4000"
   inkscape:window-height="2094"
   id="namedview15"
   showgrid="false"
   inkscape:zoom="0.27314815"
   inkscape:cx="-1369.2203"
   inkscape:cy="432"
   inkscape:window-x="-16"
   inkscape:window-y="-16"
   inkscape:window-maximized="1"
   inkscape:current-layer="Layer_1" />



<text
   xml:space="preserve"
   style="font-style:normal;font-weight:normal;font-size:32.91365051px;line-height:1.25;font-family:sans-serif;letter-spacing:0px;word-spacing:0px;fill:#000000;fill-opacity:1;stroke:none;stroke-width:0.82284129"
   x="-922.38458"
   y="279.63483"
   id="text828"
   inkscape:export-xdpi="96"
   inkscape:export-ydpi="96"><tspan
     sodipodi:role="line"
     id="tspan826"
     x="-922.38458"
     y="279.63483"
     style="font-size:157.98551941px;stroke-width:0.82284129">SADNESS</tspan></text>

<flowRoot
   xml:space="preserve"
   id="flowRoot2495"
   style="fill:black;fill-opacity:1;stroke:none;font-family:sans-serif;font-style:normal;font-weight:normal;font-size:40px;line-height:1.25;letter-spacing:0px;word-spacing:0px"><flowRegion
     id="flowRegion2497"><rect
       id="rect2499"
       width="882.30511"
       height="768.81354"
       x="-54.915253"
       y="-84.203392" /></flowRegion><flowPara
     id="flowPara2501"></flowPara></flowRoot><flowRoot
   xml:space="preserve"
   id="flowRoot2503"
   style="fill:black;fill-opacity:1;stroke:none;font-family:sans-serif;font-style:normal;font-weight:normal;font-size:40px;line-height:1.25;letter-spacing:0px;word-spacing:0px"><flowRegion
     id="flowRegion2505"><rect
       id="rect2507"
       width="1266.7119"
       height="673.62714"
       x="-270.91525"
       y="84.203392" /></flowRegion><flowPara
     id="flowPara2509"></flowPara></flowRoot><use
   id="use96927"
   xlink:href="#emoji-1f628"
   x="0"
   y="0"
   width="100%"
   height="100%"
   transform="translate(-959.18639,-710.23729)" /></svg>