<?xml version="1.0" encoding="UTF-8" standalone="no"?>
<!-- Created with Inkscape (http://www.inkscape.org/) -->

<svg
   xmlns:dc="http://purl.org/dc/elements/1.1/"
   xmlns:cc="http://creativecommons.org/ns#"
   xmlns:rdf="http://www.w3.org/1999/02/22-rdf-syntax-ns#"
   xmlns:svg="http://www.w3.org/2000/svg"
   xmlns="http://www.w3.org/2000/svg"
   xmlns:xlink="http://www.w3.org/1999/xlink"
   xmlns:sodipodi="http://sodipodi.sourceforge.net/DTD/sodipodi-0.dtd"
   xmlns:inkscape="http://www.inkscape.org/namespaces/inkscape"
   width="210mm"
   height="297mm"
   viewBox="0 0 210 297"
   version="1.1"
   id="svg1356"
   inkscape:version="0.92.3 (2405546, 2018-03-11)"
   sodipodi:docname="centerJoy.svg"
   inkscape:export-filename="C:\Users\Joe's Laptop\Documents\potentie-FeelsBook\graphics\center.png"
   inkscape:export-xdpi="96"
   inkscape:export-ydpi="96">
  <defs
     id="defs1350">
    <symbol
       viewBox="0 0 64 64"
       id="emoji-1f621">
      <title
         id="title52302">1f621</title>
      <circle
         style="fill:#f46767;stroke-width:0.26458332"
         cx="8.4666662"
         cy="8.4666662"
         r="7.9375"
         id="circle52304" />
      <path
         style="fill:#493b30;stroke-width:0.26458332"
         inkscape:connector-curvature="0"
         d="M 11.293475,12.921985 C 10.817225,12.641792 10.35685,12.471929 9.8853625,12.359217 9.4159917,12.246504 8.9421229,12.198085 8.4669312,12.197556 c -0.4757208,0.0021 -0.9490604,0.05001 -1.4181666,0.162719 -0.4714875,0.113242 -0.9315979,0.282046 -1.4083771,0.56171 0.2039937,-0.523081 0.6574896,-0.934243 1.1631083,-1.197239 0.511175,-0.264584 1.0898188,-0.393171 1.6634354,-0.393171 0.5733521,0.0011 1.1519959,0.128587 1.6626418,0.394229 0.505089,0.262996 0.95885,0.673629 1.163902,1.196181"
         id="path52306" />
      <path
         style="fill:#ffffff;stroke-width:0.26458332"
         inkscape:connector-curvature="0"
         d="m 13.835062,6.5079562 c 0.531813,1.141148 0.03863,2.4974021 -1.102783,3.0292146 C 11.591131,10.068983 10.234877,9.5755354 9.7030646,8.4349167 9.3024854,7.57555 13.43369,5.6485896 13.835062,6.5079562"
         id="path52308" />
      <g
         style="fill:#493b30"
         id="g52314">
        <path
           style="stroke-width:0.26458332"
           inkscape:connector-curvature="0"
           d="m 13.166196,6.8199 c 0.359569,0.771525 0.02593,1.6883062 -0.745067,2.0484042 -0.771525,0.3595687 -1.688306,0.025929 -2.048404,-0.7455959 -0.2286,-0.4897437 2.564871,-1.7925521 2.793471,-1.3028083"
           id="path52310" />
        <path
           style="stroke-width:0.26458332"
           inkscape:connector-curvature="0"
           d="m 14.259719,6.5947396 c -0.494771,0.048154 -0.936361,0.1214437 -1.363398,0.2357437 -0.425715,0.1116542 -0.832115,0.2598209 -1.222904,0.441325 -0.392642,0.1822979 -0.764646,0.3937 -1.12448,0.6474354 -0.360891,0.2532063 -0.6998224,0.544248 -1.0517183,0.8961438 0.053711,-0.4987396 0.29845,-0.9673167 0.6270623,-1.3533438 0.3302,-0.3865562 0.754327,-0.6987645 1.215761,-0.9104312 0.46302,-0.2145771 0.97102,-0.3339042 1.479285,-0.3384021 0.505619,-0.00238 1.020763,0.1076854 1.440392,0.3815292"
           id="path52312" />
      </g>
      <path
         style="fill:#ffffff;stroke-width:0.26458332"
         inkscape:connector-curvature="0"
         d="M 3.0980062,6.5079562 C 2.5661937,7.6491042 3.0593771,9.0053583 4.2007896,9.5371708 5.3414083,10.068983 6.6979271,9.5755354 7.229475,8.4349167 7.6305833,7.57555 3.49885,5.6485896 3.0980062,6.5079562"
         id="path52316" />
      <g
         style="fill:#493b30"
         id="g52322">
        <path
           style="stroke-width:0.26458332"
           inkscape:connector-curvature="0"
           d="M 3.7671375,6.8199 C 3.4070396,7.591425 3.7406792,8.5082062 4.511675,8.8683042 5.2837292,9.2278729 6.2005104,8.8942333 6.5606083,8.1227083 6.7886792,7.6329646 3.9957375,6.3301562 3.7671375,6.8199"
           id="path52318" />
        <path
           style="stroke-width:0.26458332"
           inkscape:connector-curvature="0"
           d="M 2.6749375,6.5947396 C 3.0945667,6.3208958 3.6091812,6.2108292 4.1153292,6.2129458 4.6235937,6.2177083 5.1315937,6.3370354 5.5946146,6.5513479 6.0560479,6.7632792 6.4799104,7.0752229 6.810375,7.4617792 7.1387229,7.8483354 7.3837271,8.3163833 7.4374375,8.8151229 7.0855417,8.4632271 6.746875,8.1721854 6.3857187,7.9189792 6.0258854,7.6652437 5.6536167,7.4538417 5.2612396,7.2710146 4.8701854,7.0900396 4.4648437,6.9418729 4.0383354,6.8302187 3.6115625,6.7161833 3.1699729,6.6426292 2.6749375,6.5947396"
           id="path52320" />
      </g>
    </symbol>
    <symbol
       viewBox="0 0 64 64"
       id="emoji-2705">
      <title
         id="title66322">2705</title>
      <circle
         style="fill:#75a843;stroke-width:0.26458332"
         cx="8.4666662"
         cy="8.4666662"
         r="7.9375"
         id="circle66324" />
      <path
         style="fill:#ffffff;stroke-width:0.26458332"
         inkscape:connector-curvature="0"
         d="m 12.173479,3.7041667 -5.5562498,5.720027 -1.8467917,-1.900502 -1.8600208,1.895475 3.7009916,3.8100003 0.00582,-0.005 0.00265,0.005 7.4030417,-7.6200003 z"
         id="path66326" />
    </symbol>
    <symbol
       viewBox="0 0 64 64"
       id="emoji-1f604">
      <title
         id="title51723">1f604</title>
      <circle
         style="fill:#ffdd67;stroke-width:0.26458332"
         cx="8.4666662"
         cy="8.4666662"
         r="7.9375"
         id="circle51725" />
      <path
         style="fill:#664e27;stroke-width:0.26458332"
         inkscape:connector-curvature="0"
         d="m 12.7,9.921875 c 0,1.709473 -1.405996,3.704167 -4.2333333,3.704167 -2.8281313,0 -4.2333334,-1.994694 -4.2333334,-3.704167 0,0 1.4052021,0 4.2333334,0 2.8273373,0 4.2333333,0 4.2333333,0"
         id="path51727" />
      <path
         style="fill:#ffffff;stroke-width:0.26458332"
         inkscape:connector-curvature="0"
         d="M 4.4762208,9.921875 H 12.4587 v 1.481667 H 4.4762208 Z"
         id="path51729" />
      <g
         style="fill:#664e27"
         id="g51737">
        <path
           style="stroke-width:0.26458332"
           inkscape:connector-curvature="0"
           d="m 8.4666667,13.890625 c -2.921,0 -4.4979167,-2.044965 -4.4979167,-3.96875 V 9.6572917 h 8.995833 V 9.921875 c 0,1.923785 -1.576123,3.96875 -4.4979163,3.96875 M 4.5098229,10.186458 c 0.1383771,1.584854 1.5152688,3.175 3.9568438,3.175 2.4415753,0 3.8189953,-1.590146 3.9573733,-3.175 H 4.5098229"
           id="path51731" />
        <path
           style="stroke-width:0.26458332"
           inkscape:connector-curvature="0"
           d="m 7.2998542,6.7857687 c -0.8636,-1.6396229 -3.347773,-1.6396229 -4.211373,0 C 3.0368875,6.8857812 3.1731479,7.02945 3.3398354,7.14375 4.4338875,6.2782979 5.9539187,6.2782979 7.0466479,7.1434854 7.2138646,7.02945 7.350125,6.8857812 7.2985312,6.7857687"
           id="path51733" />
        <path
           style="stroke-width:0.26458332"
           inkscape:connector-curvature="0"
           d="M 13.845646,6.7857687 C 12.982046,5.1461458 10.498137,5.1461458 9.6345375,6.7855042 9.5829437,6.8857812 9.7189396,7.02945 9.8856271,7.1434854 10.979944,6.2780333 12.499975,6.2780333 13.595085,7.1432208 13.762037,7.0291854 13.898033,6.8857812 13.846704,6.7857687"
           id="path51735" />
      </g>
    </symbol>
  </defs>
  <sodipodi:namedview
     id="base"
     pagecolor="#ffffff"
     bordercolor="#666666"
     borderopacity="1.0"
     inkscape:pageopacity="0.0"
     inkscape:pageshadow="2"
     inkscape:zoom="0.25"
     inkscape:cx="-1326.3158"
     inkscape:cy="1562.9715"
     inkscape:document-units="mm"
     inkscape:current-layer="layer1"
     showgrid="false"
     inkscape:window-width="1920"
     inkscape:window-height="1017"
     inkscape:window-x="1912"
     inkscape:window-y="-8"
     inkscape:window-maximized="1" />
  <metadata
     id="metadata1353">
    <rdf:RDF>
      <cc:Work
         rdf:about="">
        <dc:format>image/svg+xml</dc:format>
        <dc:type
           rdf:resource="http://purl.org/dc/dcmitype/StillImage" />
        <dc:title></dc:title>
      </cc:Work>
    </rdf:RDF>
  </metadata>
  <g
     inkscape:label="Layer 1"
     inkscape:groupmode="layer"
     id="layer1">
    <path
       sodipodi:type="star"
       style="fill:#008080;fill-opacity:1;stroke:#020000;stroke-width:10;stroke-miterlimit:4;stroke-dasharray:none;stroke-dashoffset:0;stroke-opacity:1"
       id="path1905"
       sodipodi:sides="6"
       sodipodi:cx="-695.47614"
       sodipodi:cy="-116.50595"
       sodipodi:r1="357.06729"
       sodipodi:r2="310.64853"
       sodipodi:arg1="0.52359878"
       sodipodi:arg2="1.0471976"
       inkscape:flatsided="false"
       inkscape:rounded="0.05"
       inkscape:randomized="0"
       d="m -386.24679,62.027696 c -4.46348,7.730978 -146.17412,86.032394 -153.90509,90.495874 -7.73098,4.46349 -146.39729,88.03777 -155.32426,88.03777 -8.92696,0 -147.59329,-83.5743 -155.32427,-88.03778 -7.73098,-4.46348 -149.44159,-82.764889 -153.90509,-90.495867 -4.4635,-7.730978 -1.4192,-169.606693 -1.4192,-178.533663 0,-8.92696 -3.0443,-170.80265 1.4192,-178.53363 4.4635,-7.73098 146.17413,-86.03239 153.90511,-90.49588 7.73098,-4.46348 146.39729,-88.03776 155.32426,-88.03776 8.92696,0 147.59329,83.5743 155.32427,88.03778 7.73098,4.46348 149.44159,82.76489 153.90507,90.49586 4.46348,7.73098 1.41918,169.6067 1.41918,178.53366 0,8.92697 3.0443,170.802659 -1.41918,178.533636 z"
       inkscape:transform-center-x="-8.7619045e-006"
       inkscape:transform-center-y="1.4677915e-006"
       inkscape:export-xdpi="96"
       inkscape:export-ydpi="96" />
    <path
       inkscape:transform-center-y="-1.6577613e-006"
       inkscape:transform-center-x="2.2278683e-005"
       d="m -431.98133,33.712495 c -3.79716,6.576873 -124.35277,73.189195 -130.92965,76.986355 -6.57687,3.79715 -124.54262,74.89521 -132.13693,74.89521 -7.59432,-1e-5 -125.56009,-71.09807 -132.13696,-74.89523 -6.57687,-3.79716 -127.13247,-70.409465 -130.92962,-76.986337 -3.79716,-6.576873 -1.20732,-144.287253 -1.20732,-151.881573 0,-7.59432 -2.58984,-145.30468 1.20732,-151.88155 3.79716,-6.57687 124.35277,-73.18919 130.92964,-76.98635 6.57687,-3.79716 124.54262,-74.89521 132.13694,-74.89521 7.59432,0 125.56008,71.09806 132.13696,74.89522 6.57687,3.79716 127.13246,70.40947 130.92962,76.98634 3.79716,6.57688 1.20731,144.28726 1.20731,151.88158 0,7.59431 2.58985,145.304673 -1.20731,151.881545 z"
       inkscape:randomized="0"
       inkscape:rounded="0.05"
       inkscape:flatsided="false"
       sodipodi:arg2="1.0471976"
       sodipodi:arg1="0.52359878"
       sodipodi:r2="264.2739"
       sodipodi:r1="303.76312"
       sodipodi:cy="-118.16907"
       sodipodi:cx="-695.04791"
       sodipodi:sides="6"
       id="path1907"
       style="fill:#ff0000;fill-opacity:1;stroke:#020000;stroke-width:8.50716686;stroke-miterlimit:4;stroke-dasharray:none;stroke-dashoffset:0;stroke-opacity:1"
       sodipodi:type="star"
       inkscape:export-xdpi="96"
       inkscape:export-ydpi="96" />
    <path
       sodipodi:type="star"
       style="opacity:1;fill:#344955;fill-opacity:1;stroke:#000000;stroke-width:8.86314106;stroke-miterlimit:4;stroke-dasharray:none;stroke-opacity:1"
       id="path223897"
       sodipodi:sides="6"
       sodipodi:cx="-694.98005"
       sodipodi:cy="-118.25676"
       sodipodi:r1="258.87839"
       sodipodi:r2="224.19524"
       sodipodi:arg1="1.0471976"
       sodipodi:arg2="1.5707963"
       inkscape:flatsided="true"
       inkscape:rounded="-3.24393e-015"
       inkscape:randomized="0"
       d="m -565.54086,105.93851 -258.87839,-2e-5 -129.43918,-224.19526 129.43921,-224.19526 258.87838,2e-5 129.43919,224.19526 z"
       inkscape:transform-center-x="-1.2674818e-005"
       inkscape:transform-center-y="-2.5403394e-006"
       inkscape:export-xdpi="96"
       inkscape:export-ydpi="96" />
    <use
       id="use223998"
       xlink:href="#emoji-1f604"
       x="0"
       y="0"
       width="100%"
       height="100%"
       transform="matrix(6.1606349,0,0,6.1606349,-866.47512,-576.0544)"
       inkscape:export-xdpi="96"
       inkscape:export-ydpi="96" />
    <use
       transform="matrix(2.4019048,0,0,2.4019048,-875.82374,-184.8316)"
       height="100%"
       width="100%"
       y="0"
       x="0"
       xlink:href="#emoji-2705"
       id="use223979"
       inkscape:export-xdpi="96"
       inkscape:export-ydpi="96" />
  </g>
</svg>
